<?xml version="1.0" standalone="no"?>
<!DOCTYPE svg PUBLIC "-//W3C//DTD SVG 20010904//EN"
 "http://www.w3.org/TR/2001/REC-SVG-20010904/DTD/svg10.dtd">
<svg version="1.0" xmlns="http://www.w3.org/2000/svg"
 width="910.000000pt" height="910.000000pt" viewBox="0 0 910.000000 910.000000"
 preserveAspectRatio="xMidYMid meet">
<metadata>
Created by potrace 1.11, written by Peter Selinger 2001-2013
</metadata>
<g transform="translate(0.000000,910.000000) scale(0.100000,-0.100000)"
fill="#000000" stroke="none">
<path d="M4835 9093 c-55 -15 -99 -60 -116 -121 -18 -65 -7 -117 38 -170 22
-26 47 -58 56 -72 18 -28 24 -56 42 -205 2 -22 7 -60 10 -85 11 -79 14 -104
20 -155 5 -48 8 -65 20 -146 3 -20 7 -51 9 -70 2 -19 9 -72 16 -119 6 -47 13
-98 15 -115 2 -16 7 -52 10 -80 4 -27 9 -63 10 -80 2 -16 9 -64 15 -105 18
-121 19 -131 26 -210 11 -124 11 -133 -5 -175 -28 -75 -188 -313 -273 -405
-13 -14 -50 -57 -83 -95 -59 -70 -355 -369 -450 -456 -60 -54 -247 -213 -295
-251 -107 -83 -200 -155 -218 -167 -12 -8 -71 -49 -132 -92 -277 -194 -657
-400 -1005 -544 -49 -21 -103 -43 -120 -50 -172 -74 -810 -277 -944 -300 -19
-3 -37 -8 -41 -10 -3 -2 -17 -6 -31 -9 -13 -3 -71 -16 -129 -29 -104 -24 -282
-61 -350 -72 -19 -3 -57 -10 -85 -15 -27 -5 -66 -11 -85 -14 -19 -3 -57 -8
-85 -12 -27 -4 -65 -7 -82 -8 -18 0 -33 -4 -33 -8 0 -5 2 -8 4 -8 4 0 86 -16
126 -25 14 -3 45 -7 70 -10 25 -2 56 -7 70 -9 27 -6 76 -12 153 -21 26 -3 68
-7 95 -10 26 -3 63 -7 82 -10 19 -2 67 -7 105 -10 39 -4 81 -8 95 -10 38 -5
154 -15 265 -24 102 -9 766 -6 820 3 17 3 55 7 85 11 138 14 219 29 375 70
118 31 340 102 390 125 11 5 58 25 105 43 444 180 852 427 1279 772 97 78 243
217 410 389 57 59 114 114 126 122 27 17 27 17 180 -56 173 -83 537 -248 625
-282 173 -68 531 -181 640 -202 14 -3 70 -14 125 -25 115 -23 141 -27 210 -36
28 -3 66 -8 85 -10 135 -17 295 -21 405 -11 44 5 98 10 120 12 270 25 573 132
793 278 76 51 87 61 121 98 l24 27 -69 -5 c-147 -13 -616 -6 -735 10 -19 3
-56 7 -84 10 -48 6 -65 8 -145 22 -19 3 -46 8 -60 10 -14 2 -36 7 -50 10 -14
3 -34 8 -45 10 -88 17 -190 46 -331 92 -347 115 -664 266 -994 474 -69 43
-134 84 -145 91 -11 6 -22 15 -25 18 -3 3 -27 20 -55 39 -56 37 -244 180 -289
220 -203 177 -292 266 -304 308 -11 37 -26 142 -37 257 -3 33 -8 71 -10 85 -3
14 -7 52 -10 85 -4 33 -8 71 -10 85 -2 14 -7 52 -10 85 -3 33 -8 71 -10 85 -2
14 -7 56 -11 94 -7 75 -8 74 51 32 69 -49 134 -67 247 -67 101 0 113 4 258 74
166 81 224 97 338 93 l94 -3 -7 66 c-3 36 -8 73 -10 81 -2 8 -7 35 -10 60 -4
25 -8 59 -11 75 -2 17 -13 97 -24 180 -11 82 -24 153 -30 159 -5 5 -60 9 -122
9 -100 0 -121 -3 -183 -27 -144 -57 -190 -66 -314 -62 -163 5 -295 52 -378
135 l-34 34 34 23 c38 25 67 86 67 137 -1 65 -50 139 -110 163 -28 11 -104 15
-135 7z"/>
<path d="M8175 5000 c-213 -128 -490 -269 -695 -352 -41 -16 -88 -36 -105 -43
-40 -18 -232 -92 -445 -172 -96 -36 -186 -74 -200 -84 -20 -14 -30 -36 -48
-111 -12 -51 -25 -106 -28 -123 -3 -16 -21 -100 -39 -185 -50 -225 -170 -779
-211 -970 -19 -91 -41 -192 -49 -225 -8 -33 -19 -82 -24 -110 -6 -27 -13 -61
-16 -75 -3 -14 -8 -35 -11 -48 -2 -13 -16 -76 -30 -140 -14 -64 -27 -124 -29
-132 -2 -8 -40 -184 -85 -390 -45 -206 -83 -381 -85 -390 -2 -8 -8 -35 -14
-60 -5 -25 -12 -56 -15 -70 -4 -26 -85 -395 -137 -630 -16 -74 -31 -144 -33
-155 -2 -11 -27 -125 -55 -254 -29 -128 -50 -235 -47 -238 3 -3 42 0 88 6 46
6 108 13 138 16 56 6 98 11 173 21 74 10 221 44 230 53 15 15 143 345 375 971
173 464 297 798 472 1270 109 294 203 546 208 560 12 29 60 158 132 355 28 77
55 149 59 160 10 22 211 565 234 630 26 74 128 350 137 370 5 11 45 117 88
235 77 207 115 331 103 329 -3 0 -19 -9 -36 -19z"/>
<path d="M5495 4053 c-66 -12 -136 -24 -155 -27 -19 -3 -45 -7 -56 -10 -12 -2
-37 -7 -55 -10 -43 -7 -87 -15 -119 -21 -14 -3 -43 -7 -65 -10 -22 -3 -62 -10
-90 -15 -63 -12 -104 -18 -255 -40 -108 -16 -137 -20 -192 -25 -29 -3 -62 -8
-73 -10 -11 -2 -58 -7 -105 -10 -47 -4 -96 -9 -110 -11 -47 -8 -298 -21 -428
-23 l-73 -1 5 -47 c7 -65 34 -261 40 -298 3 -17 7 -50 11 -75 12 -96 22 -162
35 -240 5 -30 12 -77 16 -105 3 -27 8 -59 10 -70 2 -10 6 -37 9 -60 3 -22 12
-80 20 -130 8 -49 17 -112 20 -140 4 -27 8 -57 11 -65 2 -9 9 -51 15 -95 12
-90 12 -92 34 -230 9 -55 17 -113 19 -130 2 -16 6 -43 9 -60 4 -16 9 -50 12
-75 7 -53 14 -95 20 -130 2 -14 7 -45 10 -70 8 -56 14 -97 20 -130 3 -14 7
-43 10 -65 2 -23 11 -86 20 -140 9 -55 18 -111 20 -125 2 -14 13 -90 25 -170
12 -80 23 -152 25 -160 3 -8 7 -35 10 -60 3 -25 8 -63 11 -85 8 -46 10 -63 19
-125 3 -25 10 -70 15 -100 5 -30 17 -104 25 -165 9 -60 18 -121 20 -135 4 -27
20 -130 30 -195 10 -67 15 -99 21 -118 12 -40 34 -42 451 -45 l402 -3 5 23 c3
13 8 48 11 78 3 30 12 107 20 170 8 63 17 140 20 170 3 30 8 66 10 80 2 14 7
50 10 80 3 30 12 105 20 165 8 61 17 137 20 170 3 33 8 71 10 85 3 14 7 45 9
70 11 96 17 148 26 220 5 41 12 102 15 135 3 33 8 67 10 75 2 8 6 44 10 80 3
36 8 76 10 90 3 14 7 50 10 80 3 30 8 66 10 80 2 14 7 54 10 90 4 36 8 72 10
81 2 8 6 42 9 75 4 32 16 133 27 224 11 91 22 185 25 210 2 25 6 61 9 80 2 19
9 76 15 125 6 50 13 101 15 115 2 14 7 57 11 95 3 39 8 78 10 88 2 10 6 48 10
85 3 37 7 69 9 72 2 3 6 34 9 70 8 78 13 115 35 295 6 44 13 103 16 130 4 28
8 61 10 75 19 131 31 274 25 296 -5 19 -7 19 -125 -3z"/>
<path d="M1210 4007 c0 -5 149 -353 187 -437 12 -25 40 -90 63 -144 23 -55 53
-125 67 -155 14 -31 31 -69 38 -86 165 -380 222 -511 246 -563 16 -35 29 -65
29 -67 0 -3 13 -34 30 -69 16 -36 41 -92 55 -125 14 -33 36 -84 49 -113 13
-29 60 -136 104 -238 44 -102 112 -259 152 -350 75 -171 127 -292 225 -515 31
-71 62 -143 70 -160 44 -99 235 -537 235 -540 0 -2 13 -32 29 -67 15 -35 39
-88 53 -118 30 -68 48 -87 96 -99 54 -15 164 -32 287 -47 28 -3 61 -7 75 -9
46 -7 104 -14 155 -20 28 -3 64 -7 80 -10 17 -2 53 -7 80 -10 28 -3 65 -8 83
-11 30 -5 33 -3 28 13 -3 10 -12 43 -20 73 -8 30 -31 116 -51 190 -21 74 -39
142 -40 150 -2 8 -28 101 -58 205 -30 105 -57 199 -60 210 -3 11 -24 85 -47
165 -22 80 -43 152 -45 160 -9 34 -86 309 -100 355 -31 105 -207 731 -210 748
-2 10 -9 32 -15 50 -11 34 -258 907 -356 1260 l-57 207 -81 1 c-85 1 -103 2
-231 13 -138 12 -242 23 -295 31 -14 2 -61 9 -106 15 -44 6 -89 12 -100 14
-20 4 -103 16 -144 21 -14 2 -38 6 -55 9 -16 2 -66 10 -110 16 -44 6 -117 18
-161 25 -117 20 -174 27 -174 22z"/>
</g>
</svg>
